<svg id="svg" version="1.1" xmlns="http://www.w3.org/2000/svg" xmlns:xlink="http://www.w3.org/1999/xlink" width="400" height="400" viewBox="0, 0, 400,400"><g id="svgg"><path id="path0" d="M324.213 152.857 C 320.198 153.597,320.938 162.593,325.014 162.593 C 325.658 162.593,326.669 162.756,327.260 162.956 C 328.726 163.451,340.496 164.891,342.740 164.849 C 343.738 164.831,344.798 165.018,345.096 165.265 C 345.991 166.008,352.013 165.860,352.882 165.073 C 354.086 163.983,354.517 161.853,353.993 159.577 C 353.242 156.319,351.990 155.434,347.534 155.011 C 346.140 154.878,343.250 154.540,341.111 154.260 C 338.972 153.980,336.076 153.653,334.674 153.534 C 333.273 153.415,332.013 153.248,331.875 153.162 C 331.513 152.939,325.147 152.685,324.213 152.857 M295.655 180.068 C 294.996 180.540,294.454 181.218,294.451 181.574 C 294.447 181.931,294.285 182.222,294.091 182.222 C 293.492 182.222,293.236 184.694,293.692 186.075 C 294.552 188.681,296.806 189.622,303.519 190.178 C 304.741 190.279,308.824 190.617,312.593 190.929 C 316.361 191.240,321.202 191.659,323.350 191.859 C 335.017 192.944,337.527 192.140,337.664 187.274 C 337.704 185.877,337.638 184.831,337.519 184.951 C 337.399 185.070,336.753 184.687,336.083 184.099 C 334.587 182.785,331.526 181.856,328.647 181.840 C 327.456 181.834,325.231 181.653,323.704 181.438 C 322.176 181.222,320.009 180.986,318.889 180.913 C 317.769 180.840,314.102 180.534,310.741 180.233 C 298.217 179.114,297.006 179.101,295.655 180.068 M308.662 204.437 C 306.578 205.279,305.706 207.525,306.270 210.599 C 306.797 213.471,308.092 214.302,312.593 214.656 C 317.820 215.067,325.047 215.830,332.963 216.807 C 335.509 217.121,338.676 217.468,340.000 217.578 C 341.324 217.688,343.407 217.926,344.630 218.106 C 345.852 218.287,347.733 218.396,348.811 218.350 C 349.888 218.303,350.856 218.406,350.962 218.577 C 351.068 218.749,352.104 218.889,353.265 218.889 C 354.426 218.889,355.880 219.034,356.496 219.210 C 357.113 219.387,359.945 219.726,362.790 219.963 C 365.635 220.201,368.963 220.574,370.185 220.793 C 378.868 222.350,382.558 221.213,382.700 216.937 C 382.811 213.609,381.245 211.879,377.593 211.297 C 376.778 211.168,375.297 210.927,374.303 210.763 C 373.308 210.600,372.179 210.548,371.794 210.649 C 371.408 210.749,370.389 210.638,369.528 210.401 C 368.667 210.164,366.880 209.892,365.556 209.797 C 361.665 209.519,356.554 208.982,355.556 208.747 C 355.046 208.627,353.296 208.443,351.667 208.338 C 350.037 208.233,346.954 207.917,344.815 207.636 C 339.347 206.917,333.231 206.259,330.185 206.060 C 327.401 205.879,323.806 205.489,317.037 204.636 C 312.240 204.031,309.809 203.974,308.662 204.437 M280.046 232.964 C 278.097 233.424,276.965 234.804,276.756 236.974 C 276.582 238.793,277.224 241.111,277.904 241.111 C 278.077 241.111,278.690 241.446,279.265 241.856 C 280.574 242.788,282.957 243.247,287.845 243.510 C 289.947 243.622,291.917 243.786,292.222 243.874 C 292.683 244.005,299.853 244.555,307.037 245.010 C 307.954 245.068,308.954 245.202,309.259 245.308 C 310.381 245.697,319.936 246.439,324.008 246.452 C 328.620 246.468,328.705 246.428,330.186 243.554 C 331.000 241.977,330.359 238.519,329.254 238.519 C 329.053 238.519,328.889 238.269,328.889 237.963 C 328.889 237.657,328.633 237.407,328.320 237.407 C 328.008 237.407,327.383 237.173,326.931 236.887 C 326.445 236.578,324.528 236.267,322.222 236.122 C 320.083 235.989,317.417 235.727,316.296 235.542 C 315.176 235.357,312.676 235.124,310.741 235.023 C 308.806 234.923,306.556 234.751,305.741 234.642 C 300.707 233.969,294.769 233.317,293.851 233.336 C 293.261 233.348,291.361 233.197,289.630 232.999 C 285.879 232.570,281.775 232.555,280.046 232.964 " stroke="none" fill="#db544a" fill-rule="evenodd"></path><path id="path1" d="M284.509 97.144 C 284.037 97.713,282.718 100.612,279.079 109.074 C 277.590 112.537,274.496 119.620,272.204 124.815 C 269.912 130.009,267.315 135.926,266.434 137.963 L 264.831 141.667 262.323 141.561 C 260.944 141.503,258.148 141.136,256.111 140.746 C 254.074 140.357,250.574 139.705,248.333 139.298 C 246.093 138.890,240.593 137.886,236.111 137.066 C 231.630 136.246,226.046 135.233,223.704 134.814 C 216.080 133.450,213.596 133.000,208.519 132.066 C 205.769 131.559,199.769 130.469,195.185 129.642 C 190.602 128.816,183.769 127.560,180.000 126.852 C 169.533 124.885,159.259 123.006,153.519 122.008 C 150.667 121.512,147.083 120.859,145.556 120.557 C 144.028 120.254,139.528 119.432,135.556 118.729 C 127.503 117.304,109.681 114.079,103.704 112.964 C 101.565 112.565,96.648 111.660,92.778 110.953 C 88.907 110.245,82.407 109.055,78.333 108.308 C 52.666 103.599,54.444 103.709,54.444 106.832 C 54.444 107.688,54.201 110.042,53.903 112.064 C 53.606 114.086,53.106 118.657,52.792 122.222 C 52.478 125.787,52.064 129.870,51.872 131.296 C 51.680 132.722,51.420 135.056,51.293 136.481 C 51.166 137.907,50.741 141.741,50.348 145.000 C 49.955 148.259,49.480 152.593,49.292 154.630 C 48.856 159.359,47.637 170.597,46.480 180.556 C 45.983 184.833,45.324 190.833,45.016 193.889 C 43.969 204.272,43.316 210.176,42.737 214.515 C 41.899 220.792,41.959 220.870,48.806 222.396 C 54.436 223.650,61.090 225.270,107.222 236.613 C 117.204 239.068,127.537 241.594,130.185 242.227 C 135.516 243.501,145.204 245.867,164.444 250.595 C 171.472 252.322,178.889 254.137,180.926 254.629 C 196.997 258.508,200.248 259.378,200.845 259.958 C 201.545 260.638,202.029 272.157,201.385 272.809 C 201.137 273.060,193.748 272.420,186.111 271.487 C 184.685 271.312,180.852 270.901,177.593 270.573 C 169.810 269.790,162.694 269.018,155.185 268.141 C 151.824 267.749,140.491 266.502,130.000 265.370 C 119.509 264.239,107.343 262.894,102.963 262.382 C 98.583 261.871,91.250 261.051,86.667 260.561 C 77.889 259.622,66.010 258.298,55.185 257.052 C 51.620 256.641,46.640 256.303,44.118 256.301 L 39.532 256.296 37.956 257.872 C 35.218 260.611,34.894 264.250,37.141 267.043 C 38.842 269.158,39.019 269.206,50.185 270.569 C 55.472 271.214,55.007 271.162,65.000 272.217 C 68.870 272.625,74.870 273.291,78.333 273.697 C 81.796 274.102,85.630 274.529,86.852 274.646 C 88.074 274.763,89.574 274.923,90.185 275.002 C 90.796 275.080,93.796 275.411,96.852 275.737 C 99.907 276.063,105.824 276.736,110.000 277.233 C 114.176 277.730,124.676 278.885,133.333 279.800 C 141.991 280.715,150.824 281.710,152.963 282.011 C 155.102 282.313,158.769 282.739,161.111 282.958 C 165.990 283.415,176.204 284.511,185.370 285.561 C 202.657 287.542,209.232 288.201,212.339 288.264 L 215.741 288.333 215.838 275.810 C 215.929 264.127,215.979 263.298,216.579 263.460 C 216.933 263.556,218.806 263.995,220.741 264.437 C 222.676 264.878,227.637 266.072,231.766 267.090 C 240.141 269.155,240.432 269.171,240.639 267.593 C 240.793 266.416,243.849 257.204,259.976 209.303 C 270.319 178.583,270.631 177.467,269.478 175.259 C 267.219 170.937,260.397 170.025,257.783 173.697 C 257.019 174.769,247.037 203.201,247.037 204.304 C 247.037 205.659,243.318 204.742,229.444 199.968 C 226.593 198.986,221.843 197.414,218.889 196.473 C 205.156 192.098,190.880 187.276,190.437 186.861 C 190.032 186.482,190.081 185.576,190.719 181.627 C 192.134 172.863,194.407 158.026,195.195 152.407 C 196.198 145.256,196.449 144.444,197.659 144.444 C 198.612 144.444,209.675 146.403,221.667 148.694 C 225.333 149.395,232.167 150.641,236.852 151.463 C 241.537 152.285,250.370 153.884,256.481 155.018 C 267.177 157.001,272.948 157.930,273.150 157.701 C 273.202 157.641,273.913 156.009,274.729 154.074 C 275.546 152.139,277.958 146.556,280.091 141.667 C 282.224 136.778,285.421 129.444,287.195 125.370 C 293.920 109.924,292.508 111.390,299.691 112.398 C 301.833 112.699,305.903 113.207,308.737 113.528 C 311.571 113.848,316.189 114.435,318.999 114.833 C 329.769 116.356,332.468 115.508,334.090 110.093 C 335.585 105.103,331.867 102.446,321.499 101.096 C 318.332 100.683,314.741 100.182,313.519 99.982 C 312.296 99.782,309.046 99.381,306.296 99.090 C 303.546 98.799,297.980 98.134,293.927 97.614 C 285.434 96.522,285.042 96.503,284.509 97.144 M73.519 121.655 C 76.370 122.154,81.870 123.145,85.741 123.858 C 100.428 126.562,119.237 130.003,123.333 130.735 C 128.613 131.679,130.000 132.253,130.000 133.491 C 130.000 133.991,129.852 134.492,129.671 134.604 C 129.490 134.716,129.231 135.268,129.096 135.830 C 128.607 137.868,121.024 162.425,120.689 163.056 C 120.499 163.412,120.005 163.704,119.589 163.704 C 118.668 163.704,69.468 147.642,66.807 146.472 C 64.069 145.269,64.155 146.425,65.745 132.222 C 66.031 129.676,66.363 126.593,66.485 125.370 C 66.868 121.513,67.076 120.741,67.726 120.744 C 68.060 120.746,70.667 121.155,73.519 121.655 M147.037 135.007 C 150.602 135.686,155.935 136.676,158.889 137.206 C 161.843 137.736,165.093 138.331,166.111 138.528 C 169.166 139.118,184.054 141.754,187.037 142.233 C 191.777 142.995,191.633 142.505,190.029 152.407 C 189.632 154.852,188.856 159.852,188.303 163.519 C 186.715 174.046,184.929 184.824,184.740 185.013 C 184.541 185.213,184.185 185.101,166.481 179.288 C 159.148 176.881,147.009 172.931,139.506 170.511 L 125.864 166.111 126.062 164.444 C 126.171 163.528,128.003 157.111,130.133 150.185 C 132.264 143.259,134.205 136.843,134.447 135.926 C 135.273 132.800,135.409 132.790,147.037 135.007 M80.556 156.561 C 116.144 168.310,118.333 169.071,118.455 169.734 C 118.562 170.313,116.185 178.460,111.459 193.710 C 110.669 196.260,109.809 198.615,109.548 198.944 C 109.044 199.579,109.224 199.621,75.185 190.870 C 69.991 189.534,64.657 188.189,63.333 187.881 C 59.565 187.003,59.729 188.128,61.284 173.836 C 62.034 166.939,62.874 159.174,63.151 156.579 C 63.427 153.985,63.747 151.711,63.862 151.525 C 64.084 151.165,65.552 151.608,80.556 156.561 M130.370 172.938 C 144.955 177.513,182.521 190.105,183.233 190.656 L 184.059 191.296 183.138 197.037 C 182.631 200.194,181.966 204.361,181.659 206.296 C 180.204 215.484,179.947 216.868,179.637 217.178 C 179.322 217.493,170.567 215.374,142.963 208.304 C 136.954 206.765,128.537 204.614,124.259 203.524 C 115.399 201.267,115.314 201.239,115.041 200.528 C 114.850 200.031,117.392 191.368,121.500 178.519 C 122.510 175.361,123.335 172.578,123.334 172.333 C 123.333 171.812,124.464 171.077,125.000 171.251 C 125.204 171.316,127.620 172.076,130.370 172.938 M64.444 193.409 C 65.972 193.800,71.722 195.285,77.222 196.708 C 82.722 198.132,90.806 200.212,95.185 201.332 C 109.839 205.077,108.595 203.884,105.967 211.667 C 104.828 215.039,103.994 217.826,103.544 219.767 C 103.243 221.063,102.166 220.996,95.000 219.230 C 83.824 216.477,60.436 210.791,59.349 210.563 C 57.289 210.132,57.248 209.243,58.739 197.336 L 59.374 192.264 60.520 192.480 C 61.151 192.599,62.917 193.017,64.444 193.409 M213.519 200.174 C 226.148 204.317,236.898 207.827,237.407 207.975 C 245.016 210.179,245.067 210.248,243.133 215.741 C 242.416 217.778,240.983 222.028,239.947 225.185 C 238.912 228.343,237.937 231.176,237.781 231.481 C 237.291 232.442,235.281 232.019,213.148 226.295 C 206.630 224.609,197.812 222.345,193.552 221.264 C 184.283 218.911,184.393 219.028,185.745 213.036 C 186.052 211.672,186.709 207.722,187.203 204.259 C 188.933 192.149,188.924 192.187,189.789 192.428 C 190.211 192.546,200.889 196.031,213.519 200.174 M126.265 209.287 C 139.105 212.570,145.379 214.190,151.852 215.891 C 154.194 216.507,161.194 218.292,167.407 219.858 C 173.620 221.424,178.768 222.758,178.847 222.823 C 178.981 222.933,178.584 225.786,177.204 234.630 C 176.485 239.238,176.708 239.065,172.671 238.166 C 167.483 237.010,151.347 233.092,147.407 232.031 C 145.472 231.510,139.056 229.931,133.148 228.524 C 109.005 222.770,108.015 222.491,108.317 221.525 C 108.420 221.196,109.440 217.843,110.585 214.074 C 112.743 206.971,113.039 206.296,113.996 206.296 C 114.310 206.296,119.832 207.642,126.265 209.287 M194.074 226.663 C 200.228 228.292,205.401 229.628,228.333 235.512 C 236.365 237.572,235.928 236.686,233.129 245.246 C 230.477 253.359,231.404 252.820,223.704 250.731 C 222.176 250.317,215.509 248.669,208.889 247.070 C 202.269 245.471,195.769 243.895,194.444 243.567 C 193.120 243.240,190.287 242.555,188.148 242.046 C 181.828 240.541,182.052 240.636,181.907 239.420 C 181.836 238.822,182.036 236.833,182.351 235.000 C 182.666 233.167,183.099 230.470,183.313 229.008 C 184.105 223.595,183.213 223.789,194.074 226.663 M52.624 277.284 C 41.332 281.399,45.477 307.712,57.427 307.770 C 65.950 307.811,70.010 294.515,64.763 283.751 C 62.127 278.342,57.088 275.658,52.624 277.284 M188.651 292.205 C 176.490 295.105,180.809 322.593,193.426 322.593 C 199.228 322.593,202.577 317.758,202.588 309.370 C 202.602 298.372,196.144 290.418,188.651 292.205 " stroke="none" fill="#056382" fill-rule="evenodd"></path><path id="path2" d="M322.675 153.169 C 322.222 153.486,321.852 153.932,321.852 154.160 C 321.852 154.387,322.227 154.228,322.685 153.805 C 323.144 153.383,323.852 152.956,324.259 152.858 C 324.992 152.681,324.991 152.678,324.249 152.636 C 323.836 152.612,323.128 152.852,322.675 153.169 M328.796 152.854 C 329.255 152.942,330.005 152.942,330.463 152.854 C 330.921 152.766,330.546 152.693,329.630 152.693 C 328.713 152.693,328.338 152.766,328.796 152.854 M331.912 153.146 C 332.013 153.247,333.332 153.404,334.844 153.495 C 337.247 153.640,337.360 153.621,335.741 153.344 C 333.609 152.980,331.644 152.878,331.912 153.146 M321.348 155.633 C 321.223 156.100,321.139 157.148,321.161 157.963 C 321.196 159.239,321.246 159.140,321.522 157.248 C 321.850 154.999,321.755 154.116,321.348 155.633 M348.241 155.070 C 348.597 155.163,349.181 155.163,349.537 155.070 C 349.894 154.977,349.602 154.901,348.889 154.901 C 348.176 154.901,347.884 154.977,348.241 155.070 M351.403 155.751 C 352.073 156.059,352.716 156.557,352.832 156.859 C 352.947 157.161,353.229 157.407,353.457 157.407 C 354.164 157.407,352.091 155.644,351.111 155.412 C 350.454 155.256,350.539 155.355,351.403 155.751 M353.767 158.333 C 353.773 158.741,353.911 159.491,354.074 160.000 L 354.371 160.926 354.381 160.000 C 354.387 159.491,354.249 158.741,354.074 158.333 L 353.756 157.593 353.767 158.333 M322.092 161.307 C 322.212 161.618,322.665 162.057,323.099 162.283 C 323.826 162.660,323.817 162.615,322.991 161.717 C 321.958 160.594,321.789 160.517,322.092 161.307 M353.900 163.241 C 353.760 163.801,353.451 164.517,353.212 164.833 C 352.973 165.149,353.153 165.014,353.611 164.535 C 354.069 164.055,354.444 163.338,354.444 162.942 C 354.444 161.916,354.197 162.052,353.900 163.241 M324.815 162.963 C 326.159 163.393,328.224 163.393,327.222 162.963 C 326.815 162.788,325.898 162.650,325.185 162.656 C 324.007 162.665,323.973 162.693,324.815 162.963 M334.907 164.329 C 335.264 164.423,335.847 164.423,336.204 164.329 C 336.560 164.236,336.269 164.160,335.556 164.160 C 334.843 164.160,334.551 164.236,334.907 164.329 M337.438 164.582 C 337.523 164.658,338.426 164.816,339.444 164.934 C 340.693 165.078,340.995 165.045,340.370 164.833 C 339.445 164.518,337.147 164.322,337.438 164.582 M342.593 165.137 C 342.593 165.502,347.001 166.085,347.323 165.764 C 347.437 165.649,347.013 165.556,346.380 165.556 C 345.747 165.556,345.126 165.389,345.000 165.185 C 344.719 164.731,342.593 164.689,342.593 165.137 M349.259 165.926 L 347.963 166.199 349.259 166.211 C 349.972 166.217,350.972 166.089,351.481 165.926 L 352.407 165.629 351.481 165.641 C 350.972 165.648,349.972 165.776,349.259 165.926 M299.074 179.274 C 300.296 179.425,302.046 179.545,302.963 179.540 L 304.630 179.531 302.778 179.242 C 301.759 179.084,300.009 178.964,298.889 178.976 L 296.852 178.998 299.074 179.274 M295.134 179.988 C 293.983 180.946,294.608 180.957,295.825 180.000 C 296.343 179.593,296.596 179.259,296.387 179.259 C 296.179 179.259,295.615 179.587,295.134 179.988 M306.944 179.891 C 307.403 179.979,308.153 179.979,308.611 179.891 C 309.069 179.803,308.694 179.731,307.778 179.731 C 306.861 179.731,306.486 179.803,306.944 179.891 M311.579 180.266 C 312.142 180.351,312.975 180.349,313.431 180.261 C 313.887 180.173,313.426 180.103,312.407 180.106 C 311.389 180.109,311.016 180.181,311.579 180.266 M316.296 180.741 C 317.620 181.165,318.148 181.165,318.148 180.741 C 318.148 180.537,317.523 180.387,316.759 180.407 C 315.520 180.440,315.470 180.476,316.296 180.741 M322.685 181.366 C 323.042 181.460,323.625 181.460,323.981 181.366 C 324.338 181.273,324.046 181.197,323.333 181.197 C 322.620 181.197,322.329 181.273,322.685 181.366 M326.019 181.737 C 326.375 181.830,326.958 181.830,327.315 181.737 C 327.671 181.644,327.380 181.567,326.667 181.567 C 325.954 181.567,325.662 181.644,326.019 181.737 M333.273 182.577 C 334.360 182.947,335.839 183.810,336.560 184.495 C 337.383 185.277,337.728 185.463,337.488 184.996 C 336.704 183.468,333.712 181.800,331.898 181.878 C 331.567 181.892,332.186 182.207,333.273 182.577 M293.349 185.926 C 293.303 187.899,295.308 189.502,298.177 189.786 L 300.185 189.984 298.047 189.486 C 295.684 188.936,294.591 188.153,293.853 186.481 C 293.583 185.870,293.356 185.620,293.349 185.926 M337.842 187.285 C 337.807 188.134,337.682 189.134,337.565 189.507 C 337.364 190.144,337.377 190.146,337.771 189.532 C 338.002 189.173,338.127 188.173,338.049 187.310 L 337.907 185.741 337.842 187.285 M301.389 190.261 C 301.847 190.350,302.597 190.350,303.056 190.261 C 303.514 190.173,303.139 190.101,302.222 190.101 C 301.306 190.101,300.931 190.173,301.389 190.261 M304.962 190.432 C 304.857 190.602,305.364 190.741,306.089 190.741 C 306.814 190.741,307.407 190.676,307.407 190.598 C 307.407 190.293,305.142 190.140,304.962 190.432 M336.197 191.111 C 335.848 191.519,335.283 191.852,334.942 191.852 C 334.600 191.852,334.427 191.958,334.556 192.087 C 334.901 192.432,336.951 191.500,337.184 190.892 C 337.475 190.133,336.931 190.254,336.197 191.111 M308.796 191.002 C 309.255 191.090,310.005 191.090,310.463 191.002 C 310.921 190.914,310.546 190.842,309.630 190.842 C 308.713 190.842,308.338 190.914,308.796 191.002 M313.241 191.372 C 313.699 191.461,314.449 191.461,314.907 191.372 C 315.366 191.284,314.991 191.212,314.074 191.212 C 313.157 191.212,312.782 191.284,313.241 191.372 M318.889 191.836 C 320.213 192.002,324.130 192.221,327.593 192.324 C 332.832 192.478,333.143 192.462,329.444 192.226 C 320.926 191.682,316.300 191.511,318.889 191.836 M307.685 204.474 C 307.329 204.682,306.787 205.335,306.481 205.926 C 305.658 207.518,305.808 207.692,306.770 206.264 C 307.235 205.575,308.026 204.802,308.530 204.548 C 309.033 204.293,309.194 204.088,308.889 204.091 C 308.583 204.094,308.042 204.266,307.685 204.474 M314.356 204.336 C 314.817 204.425,315.484 204.421,315.838 204.329 C 316.192 204.236,315.815 204.163,315.000 204.167 C 314.185 204.172,313.895 204.247,314.356 204.336 M317.870 204.700 C 318.227 204.793,318.810 204.793,319.167 204.700 C 319.523 204.607,319.231 204.530,318.519 204.530 C 317.806 204.530,317.514 204.607,317.870 204.700 M321.296 205.185 C 321.907 205.341,323.157 205.467,324.074 205.465 L 325.741 205.463 324.074 205.166 C 323.157 205.003,321.907 204.877,321.296 204.886 L 320.185 204.902 321.296 205.185 M326.759 205.821 C 327.319 205.906,328.236 205.906,328.796 205.821 C 329.356 205.736,328.898 205.667,327.778 205.667 C 326.657 205.667,326.199 205.736,326.759 205.821 M334.907 206.552 C 335.264 206.645,335.847 206.645,336.204 206.552 C 336.560 206.458,336.269 206.382,335.556 206.382 C 334.843 206.382,334.551 206.458,334.907 206.552 M338.060 206.929 C 338.521 207.017,339.187 207.014,339.541 206.921 C 339.895 206.828,339.519 206.756,338.704 206.760 C 337.889 206.764,337.599 206.840,338.060 206.929 M342.875 207.299 C 343.335 207.388,344.002 207.384,344.356 207.292 C 344.710 207.199,344.333 207.126,343.519 207.130 C 342.704 207.135,342.414 207.210,342.875 207.299 M305.609 209.074 C 305.598 209.889,305.820 211.056,306.102 211.667 L 306.615 212.778 306.411 211.481 C 306.298 210.769,306.077 209.602,305.918 208.889 L 305.630 207.593 305.609 209.074 M348.578 208.160 C 348.967 208.386,349.514 208.391,350.060 208.172 C 350.817 207.868,350.740 207.823,349.444 207.813 C 348.315 207.803,348.109 207.886,348.578 208.160 M351.950 208.414 C 352.513 208.499,353.346 208.497,353.801 208.409 C 354.257 208.321,353.796 208.251,352.778 208.254 C 351.759 208.257,351.387 208.329,351.950 208.414 M356.481 208.883 C 357.605 209.175,361.365 209.373,361.080 209.125 C 360.995 209.052,359.676 208.903,358.148 208.793 C 356.521 208.677,355.831 208.715,356.481 208.883 M362.261 209.422 C 362.625 209.786,364.447 209.925,364.645 209.604 C 364.763 209.414,364.238 209.259,363.479 209.259 C 362.720 209.259,362.172 209.332,362.261 209.422 M369.444 210.370 C 370.529 210.836,372.573 210.836,371.852 210.370 C 371.546 210.173,370.713 210.021,370.000 210.032 C 368.941 210.048,368.839 210.110,369.444 210.370 M375.556 210.883 C 375.556 210.961,375.972 211.104,376.481 211.202 C 376.991 211.299,377.407 211.235,377.407 211.060 C 377.407 210.884,376.991 210.741,376.481 210.741 C 375.972 210.741,375.556 210.805,375.556 210.883 M378.875 211.546 C 380.757 212.086,382.050 213.139,382.527 214.521 C 382.933 215.696,382.941 215.700,382.742 214.630 C 382.398 212.783,380.163 211.048,378.253 211.145 C 377.890 211.163,378.170 211.344,378.875 211.546 M306.667 213.126 C 306.667 213.466,308.837 214.445,309.519 214.413 C 309.962 214.391,309.868 214.284,309.238 214.093 C 308.716 213.935,307.925 213.610,307.478 213.371 C 307.032 213.132,306.667 213.022,306.667 213.126 M313.149 214.813 C 313.011 215.037,313.470 215.185,314.299 215.185 C 315.838 215.185,315.860 215.036,314.375 214.680 C 313.827 214.549,313.275 214.609,313.149 214.813 M322.222 215.961 C 325.787 216.341,328.954 216.600,329.259 216.537 C 329.565 216.473,328.815 216.309,327.593 216.171 C 326.370 216.034,324.120 215.754,322.593 215.551 C 321.065 215.347,318.898 215.201,317.778 215.225 C 316.594 215.252,318.457 215.560,322.222 215.961 M382.817 216.882 C 382.694 217.204,382.593 217.795,382.593 218.194 C 382.593 219.090,381.434 220.375,380.086 220.972 C 379.530 221.219,379.304 221.435,379.586 221.451 C 380.371 221.498,382.532 220.042,382.731 219.333 C 383.367 217.068,383.429 215.288,382.817 216.882 M331.574 216.922 C 331.931 217.015,332.514 217.015,332.870 216.922 C 333.227 216.829,332.935 216.753,332.222 216.753 C 331.509 216.753,331.218 216.829,331.574 216.922 M334.356 217.299 C 334.817 217.388,335.484 217.384,335.838 217.292 C 336.192 217.199,335.815 217.126,335.000 217.130 C 334.185 217.135,333.895 217.210,334.356 217.299 M337.315 217.669 C 337.773 217.757,338.523 217.757,338.981 217.669 C 339.440 217.581,339.065 217.508,338.148 217.508 C 337.231 217.508,336.856 217.581,337.315 217.669 M340.228 217.847 C 340.330 218.013,341.099 218.148,341.935 218.148 C 342.772 218.148,343.376 218.067,343.276 217.968 C 342.958 217.649,340.034 217.533,340.228 217.847 M344.537 218.403 C 344.894 218.497,345.477 218.497,345.833 218.403 C 346.190 218.310,345.898 218.234,345.185 218.234 C 344.472 218.234,344.181 218.310,344.537 218.403 M348.519 218.498 C 347.317 218.733,347.375 218.763,349.321 218.913 C 350.972 219.040,351.338 218.975,351.035 218.611 C 350.623 218.116,350.508 218.111,348.519 218.498 M353.519 219.276 C 356.136 219.684,357.962 219.674,356.667 219.259 C 356.157 219.096,354.824 218.968,353.704 218.975 L 351.667 218.988 353.519 219.276 M358.426 219.891 C 358.884 219.979,359.634 219.979,360.093 219.891 C 360.551 219.803,360.176 219.731,359.259 219.731 C 358.343 219.731,357.968 219.803,358.426 219.891 M361.759 220.261 C 362.218 220.350,362.968 220.350,363.426 220.261 C 363.884 220.173,363.509 220.101,362.593 220.101 C 361.676 220.101,361.301 220.173,361.759 220.261 M364.846 220.505 C 364.931 220.579,366.417 220.732,368.148 220.846 C 369.996 220.968,370.914 220.928,370.370 220.749 C 369.472 220.453,364.536 220.235,364.846 220.505 M375.470 221.750 C 376.135 221.832,377.135 221.831,377.692 221.746 C 378.248 221.662,377.704 221.594,376.481 221.596 C 375.259 221.598,374.804 221.667,375.470 221.750 M280.556 232.404 C 280.352 232.472,279.731 232.628,279.177 232.750 C 274.511 233.778,275.984 242.963,280.816 242.963 C 281.286 242.963,279.192 241.632,278.148 241.267 C 276.812 240.800,276.186 237.067,277.135 235.221 C 277.935 233.665,279.290 232.977,282.222 232.639 C 284.875 232.333,284.909 232.317,282.963 232.300 C 281.843 232.289,280.759 232.336,280.556 232.404 M288.056 232.854 C 288.514 232.942,289.264 232.942,289.722 232.854 C 290.181 232.766,289.806 232.693,288.889 232.693 C 287.972 232.693,287.597 232.766,288.056 232.854 M291.852 233.105 C 291.852 233.435,293.217 233.567,293.895 233.302 C 294.455 233.083,294.299 233.009,293.241 232.989 C 292.477 232.975,291.852 233.027,291.852 233.105 M301.111 234.093 C 302.028 234.256,303.361 234.380,304.074 234.368 C 305.134 234.349,305.033 234.293,303.519 234.057 C 300.975 233.661,298.860 233.692,301.111 234.093 M306.296 234.586 C 306.296 234.901,308.180 235.064,308.364 234.765 C 308.473 234.589,308.052 234.444,307.429 234.444 C 306.806 234.444,306.296 234.508,306.296 234.586 M310.284 235.083 C 310.950 235.166,311.950 235.164,312.507 235.079 C 313.063 234.995,312.519 234.928,311.296 234.930 C 310.074 234.932,309.619 235.001,310.284 235.083 M316.481 235.540 C 317.600 235.840,321.368 236.044,321.080 235.789 C 320.995 235.714,319.676 235.560,318.148 235.447 C 316.453 235.321,315.803 235.358,316.481 235.540 M322.875 236.188 C 323.335 236.276,324.002 236.273,324.356 236.180 C 324.710 236.088,324.333 236.015,323.519 236.019 C 322.704 236.023,322.414 236.099,322.875 236.188 M326.874 236.840 C 327.269 237.139,327.843 237.383,328.148 237.383 C 328.470 237.382,328.315 237.159,327.778 236.852 C 326.561 236.156,325.959 236.148,326.874 236.840 M328.901 238.056 C 328.894 238.310,329.055 238.519,329.258 238.519 C 329.461 238.519,329.864 239.060,330.154 239.722 C 330.454 240.409,330.693 240.656,330.711 240.298 C 330.727 239.953,330.329 239.203,329.827 238.632 C 329.324 238.060,328.907 237.801,328.901 238.056 M330.126 243.558 C 329.669 244.785,328.400 246.295,327.801 246.326 C 327.388 246.346,327.361 246.410,327.707 246.549 C 328.560 246.890,331.213 243.682,330.592 243.061 C 330.480 242.949,330.270 243.172,330.126 243.558 M285.093 243.595 C 285.551 243.683,286.301 243.683,286.759 243.595 C 287.218 243.506,286.843 243.434,285.926 243.434 C 285.009 243.434,284.634 243.506,285.093 243.595 M289.444 243.739 C 288.545 243.939,288.704 243.995,290.278 244.030 C 291.347 244.054,292.222 244.010,292.222 243.932 C 292.222 243.625,290.496 243.505,289.444 243.739 M293.801 244.340 C 294.364 244.425,295.198 244.423,295.653 244.335 C 296.109 244.247,295.648 244.177,294.630 244.180 C 293.611 244.183,293.238 244.255,293.801 244.340 M298.418 244.712 C 299.075 244.794,300.242 244.795,301.010 244.715 C 301.779 244.635,301.241 244.568,299.815 244.566 C 298.389 244.564,297.760 244.630,298.418 244.712 M303.611 245.076 C 304.069 245.164,304.819 245.164,305.278 245.076 C 305.736 244.988,305.361 244.916,304.444 244.916 C 303.528 244.916,303.153 244.988,303.611 245.076 M306.538 245.278 C 306.633 245.431,307.312 245.556,308.047 245.556 C 308.781 245.556,309.274 245.447,309.142 245.315 C 308.803 244.976,306.329 244.940,306.538 245.278 M310.468 245.821 C 311.031 245.906,311.864 245.904,312.320 245.816 C 312.775 245.728,312.315 245.659,311.296 245.661 C 310.278 245.664,309.905 245.736,310.468 245.821 M314.172 246.192 C 314.735 246.277,315.568 246.275,316.024 246.187 C 316.479 246.099,316.019 246.029,315.000 246.032 C 313.981 246.035,313.609 246.107,314.172 246.192 M318.433 246.565 C 319.098 246.647,320.098 246.645,320.655 246.561 C 321.211 246.476,320.667 246.409,319.444 246.411 C 318.222 246.413,317.767 246.482,318.433 246.565 " stroke="none" fill="#bc5b51" fill-rule="evenodd"></path></g></svg>